PathFileType	4	(X/Y/Z)	pose_F01_0-95.trc
DataRate	CameraRate	NumFrames	NumMarkers	Units	OrigDataRate	OrigDataStartFrame	OrigNumFrames
30	30	8	21	m	30	47	95
Frame#	Time	CHip			RHip			RKnee			RAnkle			RBigToe			RSmallToe			RHeel			LHip			LKnee			LAnkle			LBigToe			LSmallToe			LHeel			Neck			Nose			RShoulder			RElbow			RWrist			LShoulder			LElbow			LWrist			
		X1	Y1	Z1	X2	Y2	Z2	X3	Y3	Z3	X4	Y4	Z4	X5	Y5	Z5	X6	Y6	Z6	X7	Y7	Z7	X8	Y8	Z8	X9	Y9	Z9	X10	Y10	Z10	X11	Y11	Z11	X12	Y12	Z12	X13	Y13	Z13	X14	Y14	Z14	X15	Y15	Z15	X16	Y16	Z16	X17	Y17	Z17	X18	Y18	Z18	X19	Y19	Z19	X20	Y20	Z20	X21	Y21	Z21	
47	1.5666666666666667	-0.18186820587041572	1.8398748054345397	-0.6278210280183516	-0.18714977863191348	1.8410473385594919	-0.5674020653519913	-0.18344341701096187	1.7142294310628292	-0.5547259135126902	-0.18180473582716328	1.5910802034910356	-0.5325153555172684	-0.21376699772685978	1.5548754738784916	-0.48078441716611453	-0.20834834730638105	1.5627235543263602	-0.46468492319916865	-0.1766801683479933	1.5824078981579068	-0.5499340233937429	-0.17095350124083594	1.8400727332498281	-0.6809756419379669	-0.1606109032962894	1.7067875326302235	-0.6802186244183065	-0.16209953977963706	1.5774647572065497	-0.6796518205213892	-0.19907873525534753	1.5413818063225957	-0.6259038913237673	-0.19132171285855934	1.5424183479775702	-0.6629648406787021	-0.1519655085034323	1.5635403461541533	-0.6793386740852753	-0.1596602423979836	1.9955218266334487	-0.6805518744819576	-0.188534307953471	2.0463509079504023	-0.6076224087203731	-0.16651599389581248	1.9931845183915915	-0.6039995673603659	-0.1806054727229391	1.9336796861893377	-0.5133709953301449	-0.21892883733007362	1.961879843986812	-0.435251823318539	-0.15116879713992107	1.9993398052656555	-0.756549488590874	-0.15101579892432757	1.9064861557249784	-0.7765314675452725	-0.1621717120566083	1.824640185197161	-0.7529142931401721
48	1.6	-0.18039354395665405	1.8372528936960468	-0.6330274418414128	-0.18885864395734406	1.8370235231802907	-0.5732746068618861	-0.18285033883761886	1.7100830896448689	-0.5547117060321789	-0.18147228862660483	1.5922951560468221	-0.5331464479213825	-0.21368007168875083	1.55690754273095	-0.4813935552166043	-0.20840697799643135	1.5630864326406717	-0.4647122228004599	-0.17641666024921762	1.583833519629604	-0.5505502173844579	-0.1703080789507815	1.8361545328290232	-0.6891396587515708	-0.16020071538319466	1.706607941286575	-0.6808243217954774	-0.16170405634558402	1.577694116269262	-0.6804251083155807	-0.196845376373492	1.5442574531201259	-0.6284324018767905	-0.18837545805441955	1.543131283218037	-0.6620715178359556	-0.15303477662831824	1.5643031350051526	-0.6825430454082425	-0.15989691916808074	1.9959360561385024	-0.6923703707479104	-0.18495769220903732	2.044434528091194	-0.6232511222089208	-0.16930067295312545	1.993749936287809	-0.6138054278862369	-0.19713153217702592	1.951568392086778	-0.492456700373638	-0.22249380899310403	1.948082424344407	-0.37643094875574423	-0.14459829144363429	1.9986563947155638	-0.7751121561165278	-0.1510904078763976	1.9053534123707725	-0.7879457662916391	-0.1593198431080048	1.823965490645288	-0.7877181117941717
49	1.6333333333333333	-0.17826634906477715	1.8399274483641674	-0.6357847486799139	-0.18750070481404732	1.840920859071165	-0.5793360132379295	-0.18408192444874868	1.7128928855057388	-0.5580659154039783	-0.18237099277435403	1.5921983744423287	-0.5362416566273489	-0.21586225569731957	1.5551074477995614	-0.47860030256966873	-0.21060570464757575	1.5641634574435228	-0.4622977995419352	-0.1768310327909522	1.5837835669278442	-0.5498122546065136	-0.1690849658015972	1.8377249567837861	-0.6947934561893669	-0.1592393218266369	1.7065506129449786	-0.6859481154051325	-0.16221283040772294	1.5779978375102595	-0.6797862458067098	-0.19712352425440272	1.543006475610021	-0.6278347827734349	-0.18832846162912595	1.5428245610796418	-0.6620476692931313	-0.15304396090705405	1.5646140681786067	-0.6825871227072495	-0.1579320684244937	1.997543233481966	-0.7061329513628039	-0.18238727504105254	2.0446705213602363	-0.6334455970536449	-0.17509053488225512	1.9975605045205997	-0.6160133295234038	-0.19174611296662272	1.9701605024093536	-0.4794716148992301	-0.20342408984679497	1.9361058307982881	-0.34547650805223207	-0.1400590253528056	1.9977375730487714	-0.790952761798142	-0.15078211340854542	1.909681268064429	-0.800205080647651	-0.16967323636842388	1.8314602817715788	-0.7854611465029796
50	1.6666666666666667	-0.17703353372491967	1.8376834683387235	-0.6409661893465896	-0.18843720899782856	1.8384980256071788	-0.5823059129470195	-0.18509586846562823	1.7129730293666225	-0.5612761218649758	-0.18178287003599505	1.5910608841070064	-0.5325147780546722	-0.21595318884923803	1.5552967807724267	-0.47857925177641325	-0.21035091645909104	1.5626358411519716	-0.462501311855505	-0.1757457824650625	1.5824328250924367	-0.5467456702903901	-0.16621404355389083	1.836985832807843	-0.7057196365330344	-0.16083546469238014	1.709245351618635	-0.6927439199020816	-0.16434772273138887	1.5775860963750965	-0.6775269797045046	-0.19716671685330112	1.5429783659599883	-0.6279709693171671	-0.18919768971212153	1.5429783391063363	-0.6652728133232055	-0.1541295882367051	1.5656786485612308	-0.6776923895195562	-0.15871332068596533	1.9990255652205404	-0.7096942697909705	-0.18311029990238942	2.0472840178780625	-0.637001103828912	-0.17606461445073313	2.0003471908184003	-0.6200301120333775	-0.19521844048800263	1.968462096990077	-0.4899415818820619	-0.20625969480720807	1.9349092268582468	-0.3462706245124456	-0.1384658220434976	1.99787367939041	-0.7965207058921082	-0.14929229035149827	1.9137078641170668	-0.806147844951682	-0.18989439249526663	1.83491203054334	-0.7617055002050986
51	1.7	-0.1791414334252414	1.8432463645915782	-0.6481306155351477	-0.19068595757884807	1.8441396705983784	-0.5895930827893274	-0.18320005976029824	1.7145412421052049	-0.5636498293537036	-0.18384742774540586	1.590989315272172	-0.5303180604774005	-0.21389495989600102	1.555494672306557	-0.48078046027744215	-0.20846211254467872	1.5632000053056068	-0.4646512334838035	-0.1767554604540916	1.5824863111242975	-0.5498504289112073	-0.1682138099391362	1.8427752287900356	-0.7127375387833681	-0.16050677599600321	1.7104985236337833	-0.6932312021613605	-0.1636356886741376	1.5787074641401904	-0.6740793335708942	-0.19781907925759995	1.5442922756552704	-0.6317008123474789	-0.18945855750461016	1.5444107953496502	-0.6650010257245336	-0.15354044653741267	1.5647961271522999	-0.6735774481597466	-0.15875654588865976	1.9976505268759597	-0.7095517514239315	-0.18271407056191472	2.0487190836641913	-0.6453590559286208	-0.17267011149243486	1.9991543141278463	-0.6273039134051299	-0.1913089712537315	1.9638059012206717	-0.5023243283824775	-0.2164766256481896	1.9458259043824297	-0.3493189637184306	-0.14229958484286834	1.9982985179172874	-0.800162224945918	-0.15439629511559652	1.9175211962225958	-0.8050449237807116	-0.1961691129163826	1.8437904177501963	-0.7477510198815421
52	1.7333333333333334	-0.17542198879336968	1.8441453961348855	-0.6474862735947248	-0.18780034425642642	1.8451873025292678	-0.5921258664654013	-0.18473922082428254	1.7159008207364175	-0.5706598456676023	-0.18268327416734698	1.5910045862186244	-0.5356671387402417	-0.2157672338180219	1.5547549110118524	-0.4786298043594148	-0.21032395613150942	1.5626430847446335	-0.4625292496546356	-0.17672515165623312	1.5825430302746497	-0.549878056426615	-0.16588659268547465	1.8432022094216023	-0.7067605218743456	-0.1593586899902568	1.7135639701959744	-0.6907439040755559	-0.16106120627998222	1.5789935510011925	-0.6770237983985463	-0.19715875347899361	1.5430583507325102	-0.6279267335741111	-0.1883684353911338	1.543158904928164	-0.6620835809752353	-0.15193461118162843	1.5658130509035453	-0.6797846936311683	-0.15652337688062304	1.997739792325467	-0.7117262587931013	-0.18364993111239294	2.0476699390566884	-0.6484212277384944	-0.16831079189837989	1.9980604908124555	-0.6314203091046877	-0.1830751030682974	1.96238927076318	-0.5110588612828807	-0.2055817766557225	1.9670537381794664	-0.42793349002375614	-0.14378376134211604	1.9995475522944215	-0.7947237129763566	-1.1851033511521551	1.836538618540362	0.2281102152835511	-0.21375676462651638	1.8520778910656837	-0.7186269898487965
53	1.7666666666666666	-0.17756932438447554	1.847947508166756	-0.6457490611293455	-0.18706061676509833	1.8464626894299612	-0.5891278987554142	-0.18452828539672184	1.717054690017906	-0.5710415974027836	-0.18170889644268956	1.590993151604947	-0.5325768163866963	-0.2159587318964591	1.5554444466182005	-0.4785057689540623	-0.21045946281617686	1.5630305399706108	-0.4624323059114308	-0.17551746583590166	1.5810816619775385	-0.5469136278998931	-0.16892012946658808	1.8471373341872697	-0.7080166079600433	-0.1620607152281653	1.7175491530308402	-0.6925050130390502	-0.16234851844136564	1.579045998862048	-0.6794797508031775	-0.19723284456568388	1.5430178083314827	-0.6279213985754641	-0.19158596042512716	1.5442405221413031	-0.6628533817193315	-0.15139642104092516	1.5653479780582924	-0.6759295641606109	-0.15571395743685168	1.9974683291624238	-0.7086976091752396	-0.1836064456283037	2.0475539964397056	-0.6485355625843796	-0.16541443786205942	1.9968444228248228	-0.6307582223204984	-0.15856555367946767	1.9573074558214356	-0.5335165114716958	-0.1904536700571088	1.9797723290449545	-0.5216416914949868	-0.14664810132168152	2.0015354462947257	-0.7844309030940863	-0.15865842034776725	1.9279294204429904	-0.812796795319752	-0.2045830836762386	1.8741952173500256	-0.7170736811659962
54	1.8	-0.17499131936481954	1.8424548213222263	-0.647318438001172	-0.18437224000518823	1.8434855963361132	-0.5911047892569464	-0.17933633735102864	1.7131586245827397	-0.5719513744279423	-0.18123689039647503	1.5906669333625	-0.5333102320120287	-0.2158147504450917	1.5551977994687023	-0.47853679102495505	-0.21030903475283416	1.5626856160727118	-0.46245548759563987	-0.1755884234050252	1.5812295213411949	-0.5469486333284972	-0.16849180481140638	1.8413930858385623	-0.7073714847954373	-0.16429285619884534	1.7106831524303152	-0.689539163106985	-0.15971780322937756	1.5793417616492937	-0.682574164774059	-0.19687131854739887	1.5443643904421873	-0.62848272644521	-0.19039299183338088	1.5456518086609476	-0.6603105523089284	-0.1501182816798541	1.566057045820168	-0.6815242627378456	-0.1556547427618816	2.0000009885175185	-0.7090431520736198	-0.18374369865686285	2.0464347038976687	-0.6484917430387032	-0.16199438834146881	1.999542519208756	-0.6389266429420587	-0.18084436778460583	1.9525238182110747	-0.519420880156551	-0.18902880620100077	2.0085634884979573	-0.5806614503174773	-0.14893523492529417	2.0014324206560477	-0.7819445934175079	-0.16639787011418403	1.9347232987808238	-0.8011525815861169	-0.19603851188973556	1.8991645525459444	-0.6971058117265433
